Coordinates
version=1
nRows=25
nColumns=33
inDegrees=yes

Units are S.I. units (second, meters, Newtons, ...)
Angles are in degrees.

endheader
time	ground_thorax_rot_x	ground_thorax_rot_y	ground_thorax_rot_z	ground_thorax_tx	ground_thorax_ty	ground_thorax_tz	clav_prot_r	clav_elev_r	scapula_abduction_r	scapula_elevation_r	scapula_upward_rot_r	scapula_winging_r	shoulder_elv_r	plane_of_elev_r	axial_rot_r	elbow_flexion_r	pro_sup_r	wrist_flex_r	wrist_dev_r	clav_prot_l	clav_elev_l	scapula_abduction_l	scapula_elevation_l	scapula_upward_rot_l	scapula_winging_l	shoulder_elv_l	plane_of_elev_l	axial_rot_l	elbow_flexion_l	pro_sup_l	wrist_flex_l	wrist_dev_l	
6.7600	31.800577	26.905451	34.462265	-79.874657	836.962617	-44.215104	12.910734	34.286215	26.699556	45.000000	-45.000000	990.626299	-2086.780359	21.201517	-158.849420	1799.230279	-205.386376	12.225210	15.044612	-7.368966	-45.000000	-39.162585	45.000000	-45.000000	-5654.144904	-1361.423189	25.107230	25.434337	1430.286246	41.578799	13.822427	-18.925598	
6.7700	31.779636	26.780305	34.398555	-80.637771	838.493076	-44.414245	12.905737	34.258912	26.731440	45.000000	-45.000000	990.557485	-2086.766109	21.250317	-159.036765	1799.141918	-205.512177	12.311829	15.051765	-7.266166	-45.000000	-39.213868	45.000000	-45.000000	-5654.098145	-1361.379272	25.187121	25.631039	1430.265020	41.433891	13.900102	-19.002641	
6.7800	31.756672	26.663268	34.338638	-81.371000	839.995477	-44.614258	12.895944	34.232810	26.756272	45.000000	-45.000000	990.492474	-2086.752028	21.300985	-159.224801	1799.056030	-205.587253	12.407026	15.055736	-7.155926	-45.000000	-39.273377	45.000000	-45.000000	-5654.046854	-1361.342508	25.267654	25.833419	1430.241597	41.295326	13.980957	-19.072930	
6.7900	31.721875	26.557847	34.295643	-82.075620	841.461168	-44.816618	12.880033	34.206188	26.775284	45.000000	-45.000000	990.438645	-2086.741243	21.345303	-159.415641	1798.978688	-205.616336	12.508756	15.054028	-7.044503	-45.000000	-39.362033	45.000000	-45.000000	-5653.987628	-1361.316534	25.330213	26.039143	1430.223368	41.164284	14.058578	-19.132847	
6.8000	31.679820	26.470251	34.261729	-82.753269	842.880634	-45.023392	12.856265	34.182019	26.781564	45.000000	-45.000000	990.387342	-2086.733864	21.385485	-159.608119	1798.906125	-205.605849	12.618449	15.048855	-6.919073	-45.000000	-39.461794	45.000000	-45.000000	-5653.924554	-1361.297125	25.393936	26.249470	1430.202660	41.043671	14.134614	-19.180953	
6.8100	31.626113	26.399031	34.245618	-83.406086	844.243880	-45.237183	12.828756	34.152760	26.777560	45.000000	-45.000000	990.348042	-2086.728862	21.413438	-159.804596	1798.840067	-205.563617	12.730475	15.042111	-6.800780	-45.000000	-39.579413	45.000000	-45.000000	-5653.858693	-1361.285701	25.438528	26.447479	1430.189173	40.931509	14.206659	-19.216944	
6.8200	31.567975	26.344473	34.241376	-84.036691	845.541020	-45.460764	12.800755	34.130698	26.761136	45.000000	-45.000000	990.310900	-2086.727003	21.441278	-160.004888	1798.781656	-205.498969	12.847641	15.030951	-6.686554	-45.000000	-39.685723	45.000000	-45.000000	-5653.799109	-1361.269513	25.475799	26.631423	1430.174913	40.828376	14.267519	-19.234500	
6.8300	31.510014	26.295735	34.242727	-84.647858	846.762854	-45.696788	12.772439	34.103563	26.741151	45.000000	-45.000000	990.284047	-2086.727610	21.463779	-160.206894	1798.727093	-205.416848	12.962772	15.023698	-6.584684	-45.000000	-39.777966	45.000000	-45.000000	-5653.740405	-1361.254500	25.506236	26.791441	1430.160799	40.732300	14.330166	-19.244642	
6.8400	31.464875	26.248392	34.233644	-85.242155	847.901742	-45.947248	12.746558	34.082122	26.721553	45.000000	-45.000000	990.254066	-2086.732155	21.492127	-160.409258	1798.670568	-205.324514	13.077995	15.024149	-6.497265	-45.000000	-39.833032	45.000000	-45.000000	-5653.693580	-1361.237320	25.541633	26.926355	1430.143452	40.642390	14.391955	-19.246388	
6.8500	31.421392	26.201792	34.229257	-85.821580	848.952191	-46.213254	12.725422	34.050700	26.699346	45.000000	-45.000000	990.238143	-2086.734970	21.517113	-160.611157	1798.614636	-205.226099	13.185972	15.029333	-6.431331	-45.000000	-39.873921	45.000000	-45.000000	-5653.647599	-1361.220686	25.566457	27.030335	1430.127909	40.555499	14.456168	-19.245320	
6.8600	31.378692	26.159622	34.230935	-86.387254	849.911270	-46.494608	12.705640	34.025908	26.675700	45.000000	-45.000000	990.224714	-2086.741349	21.546663	-160.812054	1798.562117	-205.126355	13.292783	15.033429	-6.373652	-45.000000	-39.903425	45.000000	-45.000000	-5653.603240	-1361.203708	25.582416	27.113198	1430.115712	40.469851	14.510576	-19.236090	
6.8700	31.338766	26.117612	34.228153	-86.939340	850.778385	-46.789914	12.683005	33.993619	26.651896	45.000000	-45.000000	990.220541	-2086.750594	21.570771	-161.006155	1798.508009	-205.023277	13.394787	15.040444	-6.317736	-45.000000	-39.936695	45.000000	-45.000000	-5653.553158	-1361.200338	25.598480	27.182252	1430.106297	40.384698	14.568623	-19.233221	
6.8800	31.303624	26.079884	34.222141	-87.477062	851.554943	-47.096451	12.658628	33.969638	26.631931	45.000000	-45.000000	990.211018	-2086.767180	21.594380	-161.194318	1798.454596	-204.918243	13.497797	15.046147	-6.265856	-45.000000	-39.961922	45.000000	-45.000000	-5653.504833	-1361.202788	25.614924	27.236567	1430.098559	40.300613	14.619910	-19.231903	
6.8900	31.273852	26.044939	34.208484	-87.999157	852.243776	-47.410761	12.634317	33.939402	26.605812	45.000000	-45.000000	990.208501	-2086.782590	21.611679	-161.370247	1798.398429	-204.806946	13.600076	15.047833	-6.220051	-45.000000	-39.992736	45.000000	-45.000000	-5653.459025	-1361.217214	25.626190	27.275365	1430.097165	40.217844	14.663905	-19.238570	
6.9000	31.241912	26.019600	34.204758	-88.504003	852.848627	-47.728887	12.612090	33.916965	26.572345	45.000000	-45.000000	990.203120	-2086.799284	21.631157	-161.535365	1798.346165	-204.686972	13.706090	15.039220	-6.177126	-45.000000	-40.014952	45.000000	-45.000000	-5653.415333	-1361.228063	25.630723	27.296136	1430.097702	40.138620	14.690183	-19.246483	
6.9100	31.213411	25.997031	34.200164	-88.989845	853.373685	-48.047129	12.588991	33.892433	26.533895	45.000000	-45.000000	990.204254	-2086.814822	21.644901	-161.685342	1798.294613	-204.553061	13.817169	15.020161	-6.139443	-45.000000	-40.035087	45.000000	-45.000000	-5653.373018	-1361.245196	25.631294	27.302760	1430.100118	40.065021	14.707279	-19.266585	
6.9200	31.177170	25.985394	34.215700	-89.454307	853.823225	-48.362113	12.570252	33.873238	26.488847	45.000000	-45.000000	990.202439	-2086.830555	21.660275	-161.822729	1798.252288	-204.402576	13.929497	14.991932	-6.106992	-45.000000	-40.044506	45.000000	-45.000000	-5653.329064	-1361.252833	25.629523	27.298051	1430.096891	40.000591	14.711937	-19.294416	
6.9300	31.141658	25.974682	34.235707	-89.894591	854.201969	-48.671410	12.551869	33.852586	26.439491	45.000000	-45.000000	990.209864	-2086.843565	21.670413	-161.944706	1798.215048	-204.231843	14.047386	14.951650	-6.079523	-45.000000	-40.050805	45.000000	-45.000000	-5653.287546	-1361.263356	25.623793	27.283534	1430.092109	39.946523	14.708155	-19.335281	
6.9400	31.094022	25.973450	34.282240	-90.306789	854.515038	-48.973126	12.537995	33.834898	26.383533	45.000000	-45.000000	990.217780	-2086.854146	21.682324	-162.056327	1798.187700	-204.038976	14.167075	14.901561	-6.056175	-45.000000	-40.045856	45.000000	-45.000000	-5653.246813	-1361.262178	25.614800	27.257871	1430.080623	39.903654	14.690398	-19.383863	
6.9500	31.057117	25.961463	34.316038	-90.686361	854.768333	-49.266084	12.516121	33.819112	26.344004	45.000000	-45.000000	990.231204	-2086.869354	21.683677	-162.155649	1798.160650	-203.822607	14.295191	14.846379	-6.030596	-45.000000	-40.038473	45.000000	-45.000000	-5653.205980	-1361.277462	25.614166	27.228349	1430.070958	39.871185	14.678926	-19.455163	
6.9600	31.008342	25.962636	34.372707	-91.028204	854.968316	-49.549282	12.501835	33.803533	26.294900	45.000000	-45.000000	990.243837	-2086.879919	21.688643	-162.248556	1798.141755	-203.582978	14.420147	14.787206	-6.012845	-45.000000	-40.028035	45.000000	-45.000000	-5653.173275	-1361.283363	25.606972	27.189971	1430.056333	39.848250	14.649749	-19.529079	
6.9700	30.975106	25.946974	34.406815	-91.327718	855.121987	-49.821855	12.477262	33.788405	26.268655	45.000000	-45.000000	990.265090	-2086.896787	21.682244	-162.331714	1798.118627	-203.318724	14.551398	14.727441	-5.987338	-45.000000	-40.021162	45.000000	-45.000000	-5653.140375	-1361.312923	25.606608	27.148504	1430.048771	39.832463	14.634556	-19.626076	
6.9800	30.931611	25.943343	34.458582	-91.581305	855.236164	-50.082770	12.459945	33.770736	26.234175	45.000000	-45.000000	990.284667	-2086.910488	21.680131	-162.411612	1798.097330	-203.029509	14.677851	14.669639	-5.969112	-45.000000	-40.014642	45.000000	-45.000000	-5653.115424	-1361.335954	25.596683	27.100505	1430.042896	39.821438	14.601386	-19.721900	
6.9900	30.893471	25.935799	34.504272	-91.787013	855.316850	-50.330610	12.438141	33.759314	26.211904	45.000000	-45.000000	990.309154	-2086.930534	21.671301	-162.490055	1798.076989	-202.720389	14.812592	14.602595	-5.946762	-45.000000	-40.002617	45.000000	-45.000000	-5653.086160	-1361.366638	25.597090	27.052309	1430.035434	39.814936	14.584148	-19.834415	
7.0000	30.839570	25.951022	34.576968	-91.944672	855.368500	-50.563732	12.429876	33.742829	26.169640	45.000000	-45.000000	990.327992	-2086.943610	21.672212	-162.567253	1798.060210	-202.390576	14.936936	14.542708	-5.939955	-45.000000	-39.993318	45.000000	-45.000000	-5653.070400	-1361.385850	25.580381	27.000574	1430.027383	39.810883	14.539129	-19.932102	
